<svg width="64" height="64" viewBox="0 0 64 64" xmlns="http://www.w3.org/2000/svg">

  <!-- Fond entièrement orange -->
  <rect width="64" height="64" rx="16" fill="#F97316"/>

  <!-- Chef Hat en blanc -->
  <path d="M32 12C28.5 12 25.5 13.5 23.5 16C21 15 18 16 16.5 18.5C14 19 12 21.5 12 24.5C12 27.5 14 30 16.5 30.5V48C16.5 50.5 18.5 52 21 52H43C45.5 52 47.5 50.5 47.5 48V30.5C50 30 52 27.5 52 24.5C52 21.5 50 19 47.5 18.5C46 16 43 15 40.5 16C38.5 13.5 35.5 12 32 12Z"
        stroke="#FFFFFF"
        stroke-width="2.5"
        fill="none"/>

  <path d="M47.5 30.5V48C47.5 50.5 45.5 52 43 52H21C18.5 52 16.5 50.5 16.5 48V30.5"
        stroke="#FFFFFF"
        stroke-width="2.5"
        fill="none"/>

  <rect x="20" y="36" width="24" height="3" rx="1.5" fill="#FFFFFF"/>
  <rect x="20" y="42" width="24" height="3" rx="1.5" fill="#FFFFFF"/>

</svg>
